<svg xmlns="http://www.w3.org/2000/svg" width="256" height="256" viewBox="0 0 256 256"><rect width="254" height="254" x="1" y="1" rx="20.7"/><path fill="#fff" d="M128 54.9c23.8 0 26.6.1 36 .6s13.4 1.8 16.6 3a30.1 30.1 0 0 1 16.9 16.9c1.2 3.2 2.6 7.9 3 16.6s.6 12.2.6 36-.1 26.6-.6 36-1.8 13.4-3 16.6a30.1 30.1 0 0 1-16.9 16.9c-3.2 1.2-7.9 2.6-16.6 3s-12.2.6-36 .6-26.6-.1-36-.6-13.4-1.8-16.6-3a30.1 30.1 0 0 1-16.9-16.9c-1.2-3.2-2.6-7.9-3-16.6s-.6-12.2-.6-36 .1-26.6.6-36 1.8-13.4 3-16.6a30.1 30.1 0 0 1 16.9-16.9c3.2-1.2 7.9-2.6 16.6-3s12.2-.6 36-.6m0-16c-24.2 0-27.2.1-36.7.5a65 65 0 0 0-21.7 4.2 44.7 44.7 0 0 0-26 26 65 65 0 0 0-4.2 21.7c-.4 9.5-.5 12.5-.5 36.7s.1 27.2.5 36.7a65 65 0 0 0 4.2 21.7 44.7 44.7 0 0 0 26 26 65 65 0 0 0 21.7 4.2c9.5.4 12.5.5 36.7.5s27.2-.1 36.7-.5a65 65 0 0 0 21.7-4.2 44.7 44.7 0 0 0 26-26 65 65 0 0 0 4.2-21.7c.4-9.5.5-12.5.5-36.7s-.1-27.2-.5-36.7a65 65 0 0 0-4.2-21.7 44.7 44.7 0 0 0-26-26 65 65 0 0 0-21.7-4.2c-9.5-.4-12.5-.5-36.7-.5z"/><path fill="#fff" d="M128 82.2a45.8 45.8 0 1 0 45.8 45.8A45.8 45.8 0 0 0 128 82.2zm0 75.5a29.7 29.7 0 1 1 29.7-29.7 29.7 29.7 0 0 1-29.7 29.7z"/><circle cx="175.6" cy="80.4" r="10.7" fill="#fff"/></svg>