<svg xmlns="http://www.w3.org/2000/svg" width="256" height="256" viewBox="0 0 256 256"><rect width="254" height="254" x="1" y="1" fill="red" rx="20.7"/><path fill="#fff" d="M224 132.7a274.1 274.1 0 0 1-2 30.8s-2.1 13.1-7.8 18.9c-7.2 7.6-15.3 7.6-19 8.1-26.7 1.9-66.7 1.9-66.7 1.9s-49.5-.4-64.8-1.9c-4.2-.8-13.8-.5-21-8.1-5.7-5.8-7.7-18.9-7.7-18.9a274.1 274.1 0 0 1-2-30.8v-14.5a277 277 0 0 1 2-30.9s2-13.1 7.8-18.9c7.2-7.6 15.3-7.8 19-8.2 26.7-1.9 66.7-2.2 66.7-2.2s40 .3 66.7 2.2c3.7.4 11.9.7 19.1 8.3 5.7 5.8 7.7 18.9 7.7 18.9a274.1 274.1 0 0 1 2 30.8z"/><path fill="red" d="M108.8 150.2l51.5-26.7-51.5-26.8v53.5z"/></svg>